<svg width="30" height="30" viewBox="0 0 30 30" fill="none" xmlns="http://www.w3.org/2000/svg">
<g clip-path="url(#clip0)">
<path d="M24.7811 13.5012C24.5958 13.3158 24.2953 13.3159 24.11 13.5012L13.1558 24.4554C12.6477 24.9634 11.9724 25.2431 11.254 25.2431C10.5356 25.2431 9.86028 24.9633 9.35233 24.4554L1.14579 16.2489L4.94917 12.4455L6.29332 13.7897C6.47859 13.9749 6.77906 13.975 6.96451 13.7897C7.14984 13.6044 7.14984 13.3038 6.96451 13.1185L5.28474 11.4388C5.09941 11.2535 4.79894 11.2535 4.61355 11.4388L0.138969 15.9133C-0.0463636 16.0986 -0.0463636 16.3991 0.138969 16.5845L8.68102 25.1266C9.36832 25.8139 10.282 26.1923 11.254 26.1923C12.2258 26.1923 13.1395 25.8139 13.8269 25.1266L24.7811 14.1723C24.9665 13.9871 24.9665 13.6865 24.7811 13.5012Z" fill="white"/>
<path d="M29.861 8.4212L25.3864 3.94662C25.2011 3.76128 24.9006 3.76128 24.7153 3.94662L11.5605 17.1015C11.4786 17.1834 11.3697 17.2285 11.254 17.2285C11.1383 17.2285 11.0294 17.1834 10.9476 17.1016L8.30693 14.4609C8.12159 14.2756 7.82112 14.2756 7.63573 14.4609C7.4504 14.6462 7.4504 14.9467 7.63573 15.132L10.2764 17.7727C10.5375 18.0339 10.8848 18.1777 11.254 18.1777C11.6233 18.1777 11.9704 18.0338 12.2316 17.7727L25.0509 4.95344L28.8543 8.75677L25.4523 12.1587C25.2669 12.344 25.2669 12.6445 25.4523 12.8299C25.6376 13.0151 25.9381 13.0152 26.1234 12.8299L29.861 9.09233C29.9499 9.00339 30 8.88263 30 8.75677C30 8.63091 29.95 8.5102 29.861 8.4212Z" fill="white"/>
</g>
<defs>
<clipPath id="clip0">
<rect width="30" height="30" fill="white"/>
</clipPath>
</defs>
</svg>
