<svg width="50" height="50" viewBox="0 0 50 50" fill="none" xmlns="http://www.w3.org/2000/svg">
<path d="M25 0C11.2142 0 0 11.2142 0 25C0 38.7858 11.2142 50 25 50C38.7858 50 50 38.7839 50 25C50 11.2161 38.7858 0 25 0ZM25 46.1271C13.3521 46.1271 3.87295 36.6499 3.87295 25C3.87295 13.3501 13.3521 3.87295 25 3.87295C36.6499 3.87295 46.1271 13.3501 46.1271 25C46.1271 36.6499 36.6479 46.1271 25 46.1271Z" fill="#C44900"/>
<path d="M36.0571 27.6723L26.3747 17.9899C25.6194 17.2385 24.3995 17.2385 23.6442 17.9899L13.9618 27.6723C13.3402 28.3966 13.3402 29.4675 13.9618 30.1917C14.657 31.0031 15.8808 31.0979 16.6923 30.4027L24.9998 22.0953L33.3267 30.4028C34.0819 31.1542 35.3018 31.1542 36.0571 30.4028C36.8085 29.6475 36.8085 28.4275 36.0571 27.6723Z" fill="#C44900"/>
</svg>
